# xmcd
#
# Track frame offsets:
#	150
#	11585
#	25772
#	42597
#	57660
#	75760
#	91432
#	106295
#	124020
#	138967
#	155442
#
# Disc length: 2234 seconds
#
# Revision: 0
# Processed by: cddbd v1.5.1PL0 Copyright (c) Steve Scherf et al.
# Submitted via: audiograbber 1.81.02
#
DISCID=8308b80b
DTITLE=Sammy Rose - Fools Gold
DYEAR=1995
DGENRE=Country
TTITLE0=You'r Gonna Miss Me
TTITLE1=The One In The Red Dress
TTITLE2=Destination Heartbreak
TTITLE3=Rose's Lament
TTITLE4=My Heart Can't Take The Beating
TTITLE5=Jealous Bone
TTITLE6=Cold Hard Stare
TTITLE7=T'ill I'm Over You
TTITLE8=Backside View
TTITLE9=Sugar Please
TTITLE10=Fools Gold
EXTD=
EXTT0=
EXTT1=
EXTT2=
EXTT3=
EXTT4=
EXTT5=
EXTT6=
EXTT7=
EXTT8=
EXTT9=
EXTT10=
PLAYORDER=
